<svg xmlns="http://www.w3.org/2000/svg" width="512" height="512" viewBox="0 0 512 512" version="1.1">
	<path d="M 231.500 60.056 C 188.503 62.552, 155.324 72.355, 140.160 87.043 C 133.874 93.132, 132.007 96.671, 132.007 102.500 C 132.007 108.839, 134.392 112.848, 140.976 117.578 C 146.721 121.706, 147.165 123.606, 143.504 128.406 C 138.846 134.513, 138.507 137.150, 141.516 143.857 C 143.050 147.274, 143.934 150.634, 143.587 151.727 C 143.253 152.777, 139.358 156.922, 134.931 160.940 C 125.007 169.944, 118.026 179.715, 113.931 190.334 C 107.788 206.263, 107.645 208.381, 108.489 270.500 C 108.908 301.300, 109.531 347.875, 109.875 374 L 110.500 421.500 113.416 426.763 C 125.070 447.797, 153.935 464.642, 193.470 473.481 C 245.458 485.103, 312.808 480.095, 354.362 461.517 C 372.380 453.462, 383.396 445.198, 390.957 434.064 C 399.163 421.980, 398.431 431.363, 399.078 330 C 399.475 267.979, 400.012 238.084, 400.785 235 C 402.676 227.456, 402.255 212.401, 399.889 202.940 C 395.833 186.728, 389.742 175.993, 376.787 162.223 C 368.148 153.041, 367.831 152.041, 371 144 C 373.617 137.361, 373.525 133.784, 370.648 130.327 C 366.254 125.045, 366.635 122.830, 373.086 116.155 C 383.248 105.640, 383.378 98.333, 373.575 88.724 C 356.503 71.991, 324.869 62.468, 278.095 59.983 C 258.484 58.941, 250.488 58.953, 231.500 60.056 M 241 70.676 C 228.891 71.217, 211.544 73.147, 201.438 75.078 C 184.817 78.252, 165.197 85.794, 160.751 90.718 C 159.079 92.570, 159.101 92.746, 161.251 94.760 C 164.223 97.542, 170.419 100.096, 182 103.313 C 213.071 111.942, 269.932 113.552, 310 106.936 C 329.702 103.683, 348.171 97.768, 350.527 93.956 C 353.375 89.348, 327.350 78.212, 303.980 74.039 C 286.306 70.882, 263.554 69.668, 241 70.676 M 229 76.676 C 205.880 79.030, 175 87.148, 175 90.873 C 175 92.290, 184.347 95.553, 192.500 96.983 C 198.406 98.019, 201.531 97.945, 212.500 96.507 C 232.314 93.911, 266.798 93.445, 288 95.486 C 322.538 98.812, 330.765 98.717, 335.207 94.941 L 337.500 92.992 334.758 90.715 C 328.397 85.432, 306.606 79.359, 285.789 77.068 C 276.939 76.095, 237.396 75.822, 229 76.676 M 156 102.017 C 156 103.292, 164.178 108.735, 170.282 111.522 C 201.006 125.551, 282.860 128.102, 328.754 116.461 C 338.706 113.936, 349.502 108.799, 351.090 105.831 C 351.629 104.824, 351.942 104, 351.785 104 C 351.628 104, 347.225 105.528, 342 107.394 C 330.880 111.366, 318.382 114.190, 301 116.659 C 291.029 118.076, 281.620 118.439, 254.500 118.456 C 223.632 118.475, 219.314 118.269, 207.625 116.222 C 189.071 112.972, 171.669 108.370, 163.285 104.496 C 159.278 102.645, 156 101.529, 156 102.017 M 154.090 124.609 C 157.352 128.539, 173.925 134.591, 189 137.356 C 213.715 141.891, 220.806 142.452, 253.500 142.462 C 281.833 142.471, 287.334 142.205, 301.500 140.137 C 326.816 136.441, 326 136.499, 326 138.415 C 326 139.805, 326.638 139.975, 329.750 139.410 C 340.552 137.451, 357.943 129.198, 359.429 125.326 C 360.406 122.777, 359.492 122.708, 355.016 124.992 C 346.309 129.434, 317.734 134.612, 288.438 137.058 C 269.466 138.641, 222.419 137.792, 206.500 135.579 C 188.161 133.029, 165.639 128.276, 158.879 125.529 C 154.493 123.747, 153.163 123.491, 154.090 124.609 M 149.469 142.853 C 159.459 153.665, 193.087 163.919, 228.500 166.952 C 281.037 171.451, 342.203 161.459, 359.879 145.490 C 365.327 140.569, 365.128 139.307, 359.503 143.103 C 343.039 154.214, 303.719 162.522, 262 163.705 C 215.799 165.014, 172.994 156.677, 150 141.891 L 146.500 139.640 149.469 142.853 M 147.681 159.962 L 145.932 162.924 149.987 164.993 L 154.042 167.062 143.647 177.281 C 135.182 185.602, 132.575 188.893, 129.613 195 C 124.105 206.353, 123.120 212.974, 122.397 243.500 C 121.642 275.431, 122.378 282.872, 127.037 290.367 C 131.190 297.048, 131.525 299.836, 129.394 310 C 127.862 317.309, 127.560 325.318, 127.239 367.158 C 126.878 414.083, 126.935 415.952, 128.845 419.658 C 133.911 429.490, 148.187 438.319, 172.087 446.399 C 208.849 458.828, 250.094 461.918, 295 455.608 C 316.668 452.563, 328.080 450.045, 343.480 444.910 C 361.356 438.949, 372.263 432.142, 379.132 422.659 L 382 418.700 381.957 382.600 C 381.933 362.745, 381.527 323.146, 381.054 294.601 L 380.194 242.703 382.639 234.601 C 386.067 223.246, 386.604 215.913, 384.588 207.998 C 380.587 192.293, 371.064 177.817, 359.750 170.244 C 357.652 168.840, 356 166.912, 356 165.867 C 356 164.840, 355.705 164, 355.345 164 C 354.985 164, 349.904 165.547, 344.054 167.439 C 321.646 174.682, 298.862 177.987, 266.351 178.707 C 233.565 179.434, 210.147 177.190, 186 171.009 C 175.829 168.405, 161.616 163.031, 155.645 159.532 C 150.199 156.341, 149.808 156.362, 147.681 159.962 M 259.061 205.939 C 256.009 208.991, 256.528 211.966, 261.074 217.467 C 269.259 227.371, 272.357 235.191, 273.568 249 C 273.930 253.125, 274.843 259.200, 275.598 262.500 C 278.038 273.169, 276.653 285.063, 272.885 285.785 C 271.677 286.017, 271.104 285.014, 270.607 281.797 C 270.242 279.434, 267.180 271.716, 263.803 264.648 C 257.684 251.840, 257.661 251.759, 257.210 241.148 C 256.962 235.291, 256.307 229.938, 255.757 229.250 C 254.481 227.658, 248.776 227.624, 247.200 229.200 C 245.490 230.910, 245.768 235.639, 247.952 241.966 C 250.115 248.233, 249.361 251, 245.488 251 C 242.856 251, 240.654 248.297, 239.607 243.779 C 238.376 238.467, 231.056 237.587, 228.826 242.483 C 226.428 247.747, 233.271 255.942, 246 263.049 C 255.031 268.092, 257.581 270.303, 260.157 275.327 C 262.757 280.399, 262.292 283.408, 258.845 283.807 C 256.788 284.045, 255.577 283.312, 253.476 280.557 C 251.496 277.961, 250 277, 247.938 277 C 244.769 277, 242 280.104, 242 283.656 C 242 285.913, 247.081 290.616, 254 294.763 C 260.660 298.753, 262.983 302.197, 266.058 312.634 C 270.577 327.969, 270.187 328.636, 260.949 321.379 C 256.383 317.792, 253.125 313.746, 246.387 303.296 C 241.613 295.892, 236.493 286.834, 235.009 283.167 C 231.855 275.372, 228.963 273.484, 224.577 276.357 C 221.472 278.392, 221.282 281.396, 224 285.500 C 225.093 287.150, 225.990 289.504, 225.993 290.731 C 226 292.807, 225.682 292.918, 221.401 292.331 C 216.444 291.652, 215.044 292.593, 215.015 296.628 C 214.990 300.206, 217.732 301.500, 225.342 301.500 L 232.356 301.500 236.678 306.787 C 239.055 309.696, 241 312.469, 241 312.950 C 241 313.431, 239.257 314.119, 237.128 314.478 C 234.162 314.980, 231.815 314.527, 227.104 312.544 C 220.195 309.636, 217.664 310.123, 215.926 314.696 C 215.187 316.638, 215.336 317.864, 216.532 319.689 C 218.481 322.664, 217.931 322.516, 232.460 323.977 C 246.108 325.349, 251.471 327.471, 258.135 334.135 C 263.544 339.544, 266.304 345.990, 266.413 353.470 C 266.516 360.557, 265.592 361.094, 257.625 358.573 C 249.519 356.008, 249.167 355.618, 251.774 352.092 C 256.870 345.199, 253.066 338.994, 243.258 338.200 C 238.825 337.841, 236.632 337.051, 233.727 334.765 C 230.902 332.541, 229.322 331.953, 227.443 332.425 C 224.444 333.178, 222.509 336.909, 223.360 340.300 C 224.059 343.085, 226.826 344.451, 236.633 346.854 C 240.326 347.759, 243.504 348.978, 243.695 349.562 C 243.886 350.147, 241.925 351.682, 239.338 352.974 L 234.635 355.323 229.242 352.411 C 218.647 346.692, 208.711 336.007, 205.388 326.761 C 203.416 321.276, 203.429 309.447, 205.415 302.741 C 206.268 299.859, 208.549 295.524, 210.483 293.109 C 212.418 290.694, 214 288.085, 214 287.310 C 214 284.425, 210.883 280.009, 208.408 279.388 C 204.112 278.309, 201.120 280.400, 200.385 284.993 C 199.596 289.925, 198.763 290.546, 195.663 288.515 C 191.997 286.112, 187 288.663, 187 292.938 C 187 293.364, 188.575 295.775, 190.500 298.296 C 194.100 303.011, 195.066 307, 192.607 307 C 191.841 307, 190.956 306.328, 190.641 305.506 C 189.870 303.499, 184.011 300.008, 181.405 300.004 C 180.253 300.002, 178.495 299.100, 177.500 298 C 175.052 295.295, 170.528 295.408, 168.557 298.223 C 165.046 303.234, 167.345 306.743, 175.553 308.904 C 180.593 310.231, 186.992 315.625, 192.661 323.325 C 197.313 329.646, 197.917 331.994, 195.423 334.064 C 194.146 335.124, 192.969 335.139, 189.250 334.144 C 182.625 332.372, 179.777 329.929, 178.554 324.965 C 177.974 322.615, 176.782 320.245, 175.905 319.699 C 173.298 318.075, 169.373 319.685, 168.030 322.928 C 166.236 327.259, 168.193 332.120, 173.673 336.943 C 179.170 341.782, 185.954 344.445, 196.836 346.036 C 206.610 347.466, 211.109 350.117, 208.552 352.942 C 207.698 353.886, 207 355.403, 207 356.314 C 207 357.440, 205.577 358.330, 202.559 359.090 C 197.244 360.428, 190.268 366.115, 188.370 370.657 C 186.786 374.448, 186.561 384.983, 187.960 389.861 C 188.812 392.832, 188.686 393.269, 186.835 393.753 C 182.330 394.932, 176.391 398.810, 174.250 401.972 C 171.241 406.417, 171.316 412.262, 174.454 417.750 C 177.535 423.138, 176.093 423.242, 171.831 417.940 C 169.739 415.336, 167.966 414.037, 166.889 414.319 C 165.416 414.704, 165.457 414.339, 167.228 411.337 C 171.299 404.439, 167.089 391.623, 159.738 388.532 C 155.704 386.836, 154.333 387.432, 152.055 391.873 C 149.646 396.570, 146.621 399.282, 140.744 402.015 C 135.454 404.474, 131 409.103, 131 412.142 C 131 418.286, 136.824 421.255, 149.159 421.399 C 156.759 421.488, 158.206 421.214, 160.992 419.159 L 164.166 416.818 162.533 419.309 C 161.636 420.679, 159.124 422.976, 156.951 424.414 C 154.778 425.852, 153 427.657, 153 428.425 C 153 430.646, 158.489 434.670, 164.029 436.509 C 170.907 438.794, 184.891 438.315, 187.784 435.696 C 189.735 433.930, 189.805 433.980, 191.138 438.136 C 192.283 441.703, 193.297 442.784, 197.500 444.912 C 201.688 447.032, 203.880 447.442, 211 447.437 C 221.009 447.429, 229.281 445.026, 231.628 441.445 C 233.531 438.541, 232.233 433.622, 228.502 429.597 C 224.908 425.718, 217.658 425.901, 212.500 430 C 208.749 432.981, 206.610 433.555, 203.582 432.393 C 200.714 431.293, 201.932 430.255, 205.968 430.360 C 211.756 430.512, 212.892 428.849, 209.640 424.984 C 208.188 423.258, 207.007 420.644, 207.015 419.173 L 207.029 416.500 208.279 419 C 210.484 423.414, 215.487 425.189, 223.693 424.470 L 230.885 423.840 233.443 428.887 C 236.676 435.268, 236.692 439.025, 233.500 442.818 C 230.296 446.625, 230.349 448.184, 233.750 450.193 C 242.403 455.302, 259.590 456.321, 267.627 452.201 C 272.335 449.787, 272.955 448.654, 273.116 442.168 C 273.180 439.601, 273.451 438.400, 273.719 439.500 C 275 444.757, 283.043 448.632, 290.757 447.710 C 297.267 446.931, 309.085 441.724, 311.435 438.600 C 312.666 436.963, 313.527 433.860, 313.801 430.074 L 314.232 424.122 318.866 424.669 C 328.103 425.759, 337.195 421.217, 337.344 415.436 C 337.386 413.821, 337.068 410.925, 336.638 409 L 335.855 405.500 337.847 408.641 C 338.942 410.368, 340.324 412.082, 340.919 412.450 C 342.776 413.598, 342.147 414.929, 337.299 420.112 C 331.908 425.874, 332.072 427.209, 338.569 430.478 C 341.549 431.977, 344.557 432.461, 351 432.478 C 360.568 432.503, 367.236 430.506, 371.014 426.485 C 372.954 424.420, 373.154 423.634, 372.248 421.645 C 369.416 415.429, 357.274 409.095, 350.708 410.408 C 347.934 410.963, 347.820 410.853, 348.474 408.249 C 349.404 404.544, 349.463 404.519, 353.214 406.286 C 360.694 409.810, 371.129 409.106, 375.750 404.766 C 379.163 401.559, 378.618 398.700, 373.982 395.487 C 369.569 392.429, 369.362 391.874, 368.604 381.043 C 368.028 372.824, 366.310 369.484, 361.410 367.060 C 355.871 364.320, 348.278 365.270, 339.809 369.761 C 339.430 369.962, 337.940 367.635, 336.498 364.588 C 335.057 361.542, 332.556 358.108, 330.939 356.957 C 322.979 351.288, 333.262 346.749, 345.591 350.489 C 348.291 351.308, 352.188 351.983, 354.250 351.989 C 360.900 352.008, 364.474 345.549, 360.036 341.532 C 358.180 339.853, 357.840 339.847, 353.887 341.429 C 345.735 344.690, 346.340 338.371, 354.718 332.744 C 357.008 331.205, 359.162 329.066, 359.503 327.990 C 360.913 323.548, 354.636 317.051, 350.476 318.647 C 349.529 319.011, 347.648 321.827, 346.296 324.904 C 343.609 331.025, 339.987 335.402, 335.800 337.589 C 330.129 340.552, 329.004 339.127, 331.088 331.622 C 331.822 328.980, 334.074 325.916, 338.154 322.009 C 343.707 316.693, 346.126 315.267, 357.799 310.432 C 366.252 306.932, 370.580 298.645, 366.082 294.575 C 362.955 291.744, 359.766 292.928, 357.526 297.750 C 356.050 300.927, 354.977 302, 353.276 302 C 352.024 302, 351 301.854, 351 301.675 C 351 300.518, 356.258 286.502, 358.492 281.700 C 361.451 275.345, 361.303 271.768, 358.009 270.005 C 355.614 268.723, 351.670 269.591, 349.674 271.840 C 348.864 272.753, 346.328 280.025, 344.039 288 C 339.527 303.721, 337.258 308.091, 330.993 313.126 C 325.084 317.875, 323.031 321.871, 321.434 331.734 C 319.515 343.594, 316.750 348.738, 310.595 351.905 C 305.614 354.469, 296.277 355.788, 291.536 354.599 C 287.950 353.698, 288.203 349.679, 292.250 343.246 C 303.696 325.054, 307.578 318.771, 310.940 313 C 314.090 307.591, 316.176 305.483, 323.369 300.440 C 335.024 292.269, 339 288.298, 339 284.827 C 339 281.702, 335.286 278.569, 332.739 279.547 C 331.890 279.872, 329.325 282.358, 327.039 285.069 C 324.045 288.620, 322.161 290, 320.310 290 C 317.864 290, 317.764 289.787, 318.236 285.600 C 318.548 282.831, 319.922 279.543, 321.944 276.727 C 325.261 272.108, 325.622 271.862, 335.250 267.635 C 340.348 265.397, 341 264.782, 341 262.210 C 341 260.615, 340.177 258.565, 339.171 257.655 C 336.295 255.052, 332.592 255.663, 328 259.500 C 321.382 265.029, 321.053 264.543, 324.093 253.708 C 325.958 247.060, 323.182 242.984, 317.721 244.355 C 314.644 245.127, 314.506 245.517, 312.530 259 C 308.964 283.337, 301.173 307.454, 292.905 319.744 C 283.692 333.439, 280.593 333.298, 278.012 319.064 C 275.565 305.572, 280.694 293.774, 293.529 283.371 C 296.813 280.709, 300.273 277.624, 301.217 276.515 C 303.708 273.590, 303.424 269.333, 300.545 266.455 C 296.910 262.819, 294.664 263.298, 292.421 268.188 C 291.365 270.491, 289.989 272.537, 289.364 272.733 C 287.858 273.207, 286 267.693, 286 262.752 C 286 257.860, 290.117 253.561, 296.341 251.955 C 298.628 251.364, 301.276 250.656, 302.224 250.381 C 304.292 249.782, 308 245.278, 308 243.365 C 308 241.326, 304.282 238, 302.003 238 C 300.904 238, 298.262 239.575, 296.132 241.500 C 293.443 243.929, 291.300 245, 289.129 245 C 283.963 245, 285.267 241.971, 294 233.683 C 302.438 225.674, 303.420 223.472, 300.443 219.223 C 298.891 217.007, 296.573 216.459, 293.591 217.603 C 292.727 217.935, 290.407 220.860, 288.437 224.103 C 284.837 230.030, 282 231.738, 282 227.979 C 282 226.867, 282.978 222.633, 284.174 218.569 C 286.238 211.552, 286.262 211.049, 284.651 208.590 C 283.383 206.655, 282.105 206, 279.599 206 C 274.965 206, 273.617 207.960, 274.446 213.491 C 275.348 219.505, 272.983 219.663, 270.569 213.750 C 269.614 211.412, 268.294 208.375, 267.635 207 C 266.056 203.704, 261.820 203.180, 259.061 205.939 M 167.826 346.921 C 162.419 348.671, 157.089 352.370, 155.925 355.182 C 155.189 356.958, 154.972 360.106, 155.359 363.398 L 155.986 368.734 151.534 370.434 C 147.651 371.917, 146.748 372.861, 144.477 377.817 C 143.044 380.943, 141.174 384.850, 140.320 386.500 C 135.236 396.324, 135.717 400.880, 141.698 399.566 C 145.226 398.791, 147.585 396.399, 151.376 389.750 C 153.992 385.161, 154.241 385, 158.698 385 C 162.932 385, 163.690 385.404, 167.906 389.908 C 172.947 395.294, 177.307 396.959, 180.417 394.684 C 181.928 393.580, 182.445 391.373, 183.063 383.398 C 183.596 376.512, 184.766 370.786, 186.892 364.648 C 189.744 356.418, 189.852 355.614, 188.460 352.923 C 187.638 351.334, 185.573 349.313, 183.871 348.433 C 180.178 346.523, 171.563 345.711, 167.826 346.921 M 170.170 361.295 C 169.374 362.255, 169.886 363.976, 172.150 367.939 C 175.459 373.732, 176.956 373.499, 176.985 367.184 C 177.013 361.115, 173.115 357.747, 170.170 361.295 M 349.792 382.122 C 347.431 384.389, 343.818 387.370, 341.763 388.746 C 337.962 391.292, 335.928 395.680, 336.085 401 C 336.143 402.991, 336.459 402.651, 337.636 399.330 C 339.604 393.776, 343.249 390.287, 350.500 387.015 C 357.116 384.030, 359.525 381.811, 358.643 379.513 C 357.628 376.867, 354.217 377.872, 349.792 382.122 M 187 409 C 184.535 411.465, 184.516 412.181, 186.844 415.056 C 190.082 419.054, 198 417.508, 198 412.878 C 198 410.212, 194.448 407, 191.500 407 C 190.125 407, 188.100 407.900, 187 409 M 249.750 426.080 C 248.787 426.641, 248 428.213, 248 429.574 C 248 432.850, 251.715 434.239, 258.184 433.381 L 263.137 432.724 259.365 428.862 C 255.560 424.965, 252.957 424.212, 249.750 426.080 M 321.277 427.973 C 317.804 430.090, 316.101 434.317, 317.678 436.905 C 319.374 439.689, 325.224 442.137, 328.874 441.591 C 335.133 440.654, 337.672 436.009, 334.837 430.684 C 332.162 425.663, 326.818 424.594, 321.277 427.973 M 288.165 428.877 C 287.384 429.372, 289.044 429.540, 292.165 429.282 C 299.493 428.677, 300.488 428.170, 294.500 428.094 C 291.750 428.059, 288.899 428.411, 288.165 428.877" stroke="none" fill="indigo" fill-rule="evenodd"/>
</svg>