<svg xmlns="http://www.w3.org/2000/svg" xmlns:xlink="http://www.w3.org/1999/xlink" version="1.1" width="1000" height="1000" viewBox="0 0 1000 1000" xml:space="preserve">
<desc>Created with Fabric.js 3.5.0</desc>
<defs>
</defs>
<rect x="0" y="0" width="100%" height="100%" fill="rgba(255,255,255,0)"/>
<g transform="matrix(2.1192 0 0 1.9662 515.3422 497.4389)" id="376078">
<path style="stroke: none; stroke-width: 1; stroke-dasharray: none; stroke-linecap: butt; stroke-dashoffset: 0; stroke-linejoin: miter; stroke-miterlimit: 4; is-custom-font: none; font-file-url: none; fill: rgb(212,34,201); fill-rule: evenodd; opacity: 1;" vector-effect="non-scaling-stroke" transform=" translate(-260.0394, -253.9591)" d="m 226.56 2.23 c -61.14 2.99 -108.33 14.79 -129.88 32.43 c -8.94 7.32 -11.59 11.58 -11.59 18.59 c 0 7.62 3.38 12.44 12.76 18.13 c 8.16 4.96 8.79 7.25 3.58 13.02 c -6.61 7.33 -7.1 10.51 -2.82 18.57 c 2.18 4.1 3.43 8.14 2.94 9.46 c -0.48 1.26 -6.01 6.24 -12.31 11.07 c -14.11 10.82 -24.03 22.58 -29.86 35.33 c -8.73 19.15 -8.94 21.7 -7.74 96.38 c 0.6 37.03 1.48 93.02 1.98 124.42 l 0.88 57.1 l 4.15 6.32 c 16.57 25.29 57.62 45.54 113.83 56.16 c 73.93 13.97 169.7 7.96 228.78 -14.38 c 25.62 -9.69 41.29 -19.62 52.04 -33.01 c 11.66 -14.52 10.62 -3.25 11.55 -125.09 c 0.57 -74.56 1.32 -110.5 2.43 -114.2 c 2.69 -9.06 2.08 -27.17 -1.28 -38.54 c -5.77 -19.49 -14.43 -32.4 -32.85 -48.95 c -12.29 -11.04 -12.74 -12.24 -8.23 -21.9 c 3.73 -7.98 3.58 -12.29 -0.5 -16.43 c -6.26 -6.35 -5.72 -9.02 3.47 -17.03 c 14.45 -12.65 14.63 -21.43 0.68 -32.99 c -24.27 -20.11 -69.25 -31.56 -135.76 -34.55 c -27.9 -1.25 -39.26 -1.24 -66.26 0.1 m 13.51 12.77 c -17.22 0.65 -41.89 2.97 -56.25 5.29 c -23.63 3.81 -51.53 12.87 -57.86 18.8 c -2.37 2.22 -2.35 2.44 0.71 4.86 c 4.22 3.34 13.04 6.42 29.51 10.28 c 44.18 10.37 125.03 12.31 182.01 4.36 c 28.01 -3.92 54.28 -11.02 57.63 -15.6 c 4.05 -5.54 -32.96 -18.93 -66.19 -23.95 c -25.13 -3.8 -57.49 -5.25 -89.56 -4.04 m -17.06 7.21 c -32.88 2.83 -76.79 12.59 -76.79 17.06 c 0 1.71 13.3 5.63 24.88 7.35 c 8.4 1.25 12.84 1.15 28.44 -0.57 c 28.17 -3.13 77.21 -3.69 107.36 -1.23 c 49.12 3.99 60.8 3.88 67.13 -0.66 l 3.26 -2.34 l -3.9 -2.73 c -9.04 -6.36 -40.03 -13.66 -69.63 -16.41 c -12.58 -1.18 -68.81 -1.5 -80.75 -0.47 m -103.8 30.46 c 0 1.53 11.63 8.07 20.31 11.42 c 43.7 16.87 160.09 19.93 225.34 5.94 c 14.16 -3.03 29.51 -9.21 31.77 -12.78 c 0.77 -1.21 1.21 -2.2 1 -2.2 c -0.23 0 -6.48 1.84 -13.92 4.08 c -15.81 4.78 -33.59 8.17 -58.3 11.14 c -14.18 1.71 -27.56 2.14 -66.12 2.16 c -43.9 0.01 -50.04 -0.23 -66.65 -2.69 c -26.39 -3.91 -51.13 -9.44 -63.06 -14.09 c -5.69 -2.24 -10.35 -3.57 -10.35 -2.98 m -2.72 27.16 c 4.64 4.72 28.21 12 49.64 15.33 c 35.15 5.45 45.23 6.12 91.72 6.13 c 40.28 0.01 48.11 -0.3 68.25 -2.79 c 36 -4.45 34.84 -4.38 34.84 -2.08 c 0 1.68 0.91 1.88 5.33 1.2 c 15.36 -2.36 40.09 -12.27 42.2 -16.93 c 1.39 -3.07 0.09 -3.15 -6.27 -0.41 c -12.39 5.34 -53.03 11.56 -94.68 14.51 c -26.97 1.9 -93.88 0.88 -116.52 -1.78 c -26.08 -3.07 -58.1 -8.78 -67.71 -12.08 c -6.24 -2.14 -8.13 -2.45 -6.81 -1.11 m -6.57 21.93 c 14.21 13 62.03 25.33 112.38 28.97 c 74.71 5.41 161.68 -6.6 186.82 -25.8 c 7.75 -5.91 7.47 -7.43 -0.54 -2.87 c -23.41 13.36 -79.32 23.35 -138.64 24.78 c -65.7 1.56 -126.57 -8.45 -159.26 -26.23 l -4.98 -2.7 l 4.22 3.86 m -2.55 20.57 l -2.49 3.56 l 5.77 2.49 l 5.76 2.49 l -14.77 12.29 c -12.04 10 -15.76 13.96 -19.96 21.3 c -7.82 13.64 -9.23 21.6 -10.25 58.3 c -1.08 38.38 -0.03 47.33 6.6 56.34 c 5.9 8.03 6.38 11.38 3.34 23.6 c -2.18 8.79 -2.6 18.42 -3.06 68.71 c -0.51 56.4 -0.43 58.65 2.28 63.11 c 7.21 11.82 27.52 22.43 61.5 32.15 c 52.27 14.94 110.91 18.66 174.78 11.07 c 30.81 -3.67 47.04 -6.68 68.94 -12.86 c 25.42 -7.16 40.92 -15.35 50.69 -26.75 l 4.08 -4.76 l -0.06 -43.4 c -0.04 -23.86 -0.61 -71.47 -1.29 -105.79 l -1.22 -62.39 l 3.48 -9.74 c 4.88 -13.64 5.63 -22.47 2.77 -31.98 c -5.69 -18.89 -19.24 -36.28 -35.32 -45.39 c -2.99 -1.68 -5.33 -4 -5.33 -5.25 c 0 -1.24 -0.43 -2.25 -0.92 -2.25 c -0.51 0 -7.75 1.86 -16.07 4.14 c -31.85 8.7 -64.26 12.68 -110.49 13.55 c -46.63 0.87 -79.92 -1.83 -114.26 -9.26 c -14.46 -3.13 -34.67 -9.59 -43.16 -13.8 c -7.75 -3.83 -8.3 -3.81 -11.33 0.52 m 158.38 55.27 c -4.34 3.67 -3.6 7.25 2.86 13.86 c 11.65 11.9 16.05 21.3 17.77 37.9 c 0.51 4.96 1.81 12.26 2.89 16.23 c 3.47 12.83 1.49 27.12 -3.87 28 c -1.71 0.28 -2.53 -0.94 -3.23 -4.8 c -0.53 -2.85 -4.88 -12.12 -9.68 -20.62 c -8.7 -15.4 -8.73 -15.5 -9.37 -28.25 c -0.36 -7.04 -1.28 -13.48 -2.06 -14.31 c -1.82 -1.91 -9.93 -1.96 -12.17 -0.06 c -2.43 2.06 -2.03 7.74 1.07 15.35 c 3.09 7.53 2 10.86 -3.5 10.86 c -3.74 0 -6.88 -3.25 -8.36 -8.68 c -1.75 -6.38 -12.16 -7.44 -15.33 -1.56 c -3.41 6.34 6.31 16.18 24.42 24.73 c 12.84 6.06 16.47 8.72 20.14 14.76 c 3.7 6.09 3.03 9.71 -1.86 10.19 c -2.93 0.29 -4.65 -0.6 -7.64 -3.91 c -2.82 -3.13 -4.95 -4.28 -7.88 -4.28 c -4.51 0 -8.45 3.73 -8.45 8.01 c 0 2.7 7.22 8.37 17.06 13.34 c 9.47 4.8 12.77 8.94 17.15 21.48 c 6.43 18.44 5.87 19.25 -7.27 10.52 c -6.5 -4.32 -11.12 -9.17 -20.7 -21.73 c -6.8 -8.91 -14.08 -19.8 -16.18 -24.2 c -4.49 -9.38 -8.6 -11.65 -14.83 -8.19 c -4.42 2.44 -4.69 6.06 -0.82 10.99 c 1.55 1.98 2.83 4.81 2.83 6.29 c 0.01 2.5 -0.44 2.63 -6.53 1.92 c -7.05 -0.82 -9.04 0.31 -9.09 5.17 c -0.03 4.3 3.87 5.85 14.69 5.85 l 9.98 0 l 6.14 6.36 c 3.38 3.5 6.14 6.83 6.14 7.41 c 0 0.58 -2.47 1.41 -5.5 1.84 c -4.22 0.6 -7.56 0.06 -14.26 -2.33 c -9.83 -3.49 -13.42 -2.91 -15.88 2.6 c -1.05 2.33 -0.84 3.8 0.85 6 c 2.77 3.57 1.99 3.4 22.65 5.16 c 19.41 1.65 27.03 4.2 36.5 12.2 c 7.69 6.5 11.62 14.26 11.77 23.25 c 0.16 8.52 -1.17 9.16 -12.48 6.13 c -11.53 -3.08 -12.03 -3.55 -8.33 -7.79 c 7.25 -8.28 1.85 -15.75 -12.1 -16.7 c -6.31 -0.43 -9.43 -1.38 -13.55 -4.14 c -4.02 -2.67 -6.27 -3.38 -8.94 -2.8 c -4.27 0.9 -7.01 5.39 -5.8 9.46 c 1 3.34 4.93 4.99 18.87 7.87 c 5.26 1.09 9.77 2.56 10.04 3.26 c 0.28 0.71 -2.5 2.55 -6.19 4.1 l -6.7 2.83 l -7.66 -3.5 c -15.06 -6.88 -29.19 -19.72 -33.91 -30.83 c -2.8 -6.59 -2.79 -20.81 0.03 -28.88 c 1.22 -3.46 4.47 -8.68 7.21 -11.58 c 2.76 -2.91 5.01 -6.05 5.01 -6.97 c 0 -3.46 -4.44 -8.78 -7.95 -9.52 c -6.11 -1.3 -10.37 1.21 -11.42 6.73 c -1.11 5.94 -2.3 6.68 -6.71 4.23 c -5.2 -2.89 -12.31 0.18 -12.31 5.33 c 0 0.5 2.23 3.4 4.98 6.44 c 5.12 5.66 6.5 10.46 3 10.46 c -1.09 0 -2.35 -0.81 -2.8 -1.79 c -1.09 -2.42 -9.43 -6.61 -13.12 -6.62 c -1.65 0 -4.14 -1.08 -5.56 -2.4 c -3.48 -3.25 -9.91 -3.11 -12.71 0.26 c -4.99 6.02 -1.73 10.24 9.94 12.84 c 7.17 1.6 16.27 8.09 24.33 17.33 c 6.61 7.61 7.48 10.42 3.92 12.91 c -1.81 1.27 -3.48 1.3 -8.77 0.1 c -9.41 -2.13 -13.47 -5.06 -15.22 -11.04 c -0.82 -2.81 -2.52 -5.66 -3.75 -6.32 c -3.71 -1.96 -9.3 -0.01 -11.21 3.88 c -2.55 5.21 0.23 11.05 8.02 16.84 c 7.82 5.82 17.46 9.02 32.95 10.94 c 13.89 1.72 20.29 4.9 16.65 8.29 c -1.21 1.14 -2.2 2.96 -2.2 4.05 c 0 1.36 -2.02 2.43 -6.31 3.34 c -7.56 1.61 -17.48 8.45 -20.18 13.91 c -2.25 4.56 -2.57 17.21 -0.58 23.08 c 1.21 3.57 1.04 4.1 -1.59 4.68 c -6.41 1.42 -14.86 6.08 -17.9 9.88 c -4.28 5.35 -4.17 12.37 0.28 18.97 c 4.38 6.48 2.33 6.6 -3.73 0.23 c -2.97 -3.13 -5.49 -4.69 -7.02 -4.35 c -2.09 0.46 -2.03 0.02 0.48 -3.58 c 5.79 -8.29 -0.2 -23.71 -10.65 -27.42 c -5.74 -2.03 -7.69 -1.32 -10.92 4.02 c -3.43 5.65 -7.74 8.91 -16.1 12.19 c -7.52 2.96 -13.85 8.52 -13.85 12.18 c 0 7.39 8.28 10.95 25.82 11.13 c 10.81 0.11 12.87 -0.23 16.82 -2.69 l 4.52 -2.81 l -2.33 2.99 c -1.27 1.65 -4.85 4.41 -7.93 6.13 c -3.09 1.73 -5.62 3.91 -5.62 4.83 c 0 2.67 7.81 7.5 15.68 9.71 c 9.78 2.74 29.66 2.16 33.77 -0.97 c 2.79 -2.13 2.89 -2.07 4.78 2.93 c 1.62 4.28 3.07 5.58 9.04 8.14 c 5.96 2.55 9.07 3.04 19.2 3.04 c 14.23 -0.01 25.99 -2.9 29.34 -7.21 c 2.7 -3.49 0.85 -9.4 -4.45 -14.23 c -5.1 -4.66 -15.41 -4.45 -22.75 0.48 c -5.33 3.58 -8.38 4.28 -12.68 2.87 c -4.08 -1.32 -2.35 -2.57 3.4 -2.44 c 8.23 0.18 9.84 -1.82 5.22 -6.47 c -2.06 -2.07 -3.74 -5.22 -3.74 -6.98 l 0.03 -3.21 l 1.78 3.01 c 3.13 5.3 10.25 7.44 21.91 6.58 l 10.22 -0.76 l 3.64 6.07 c 4.61 7.67 4.62 12.18 0.09 16.75 c -4.55 4.58 -4.48 6.44 0.36 8.86 c 12.3 6.14 36.74 7.37 48.18 2.42 c 6.68 -2.9 7.56 -4.27 7.81 -12.06 c 0.09 -3.09 0.47 -4.53 0.85 -3.21 c 1.82 6.32 13.25 10.98 24.23 9.87 c 9.26 -0.94 26.05 -7.2 29.41 -10.95 c 1.75 -1.97 2.97 -5.7 3.36 -10.25 l 0.61 -7.15 l 6.6 0.66 c 13.12 1.31 26.05 -4.15 26.26 -11.1 c 0.07 -1.95 -0.38 -5.42 -1 -7.74 l -1.11 -4.21 l 2.83 3.77 c 1.55 2.08 3.51 4.14 4.37 4.58 c 2.64 1.38 1.75 2.98 -5.15 9.21 c -7.66 6.92 -7.44 8.54 1.81 12.47 c 4.24 1.8 8.52 2.38 17.68 2.4 c 13.61 0.02 23.09 -2.37 28.45 -7.2 c 2.76 -2.49 3.04 -3.44 1.76 -5.83 c -4.02 -7.47 -21.3 -15.07 -30.63 -13.5 c -3.95 0.66 -4.11 0.53 -3.19 -2.6 c 1.32 -4.46 1.41 -4.48 6.74 -2.36 c 10.64 4.23 25.48 3.39 32.05 -1.83 c 4.85 -3.86 4.08 -7.3 -2.52 -11.16 c -6.27 -3.68 -6.57 -4.35 -7.65 -17.37 c -0.81 -9.88 -3.26 -13.9 -10.22 -16.81 c -7.88 -3.29 -18.67 -2.15 -30.71 3.25 c -0.54 0.24 -2.66 -2.56 -4.71 -6.22 c -2.05 -3.67 -5.6 -7.79 -7.91 -9.17 c -11.32 -6.82 3.3 -12.27 20.83 -7.78 c 3.84 0.99 9.39 1.79 12.31 1.8 c 9.46 0.02 14.53 -7.74 8.23 -12.57 c -2.64 -2.02 -3.13 -2.02 -8.75 -0.12 c -11.59 3.92 -10.74 -3.68 1.18 -10.45 c 3.26 -1.85 6.31 -4.41 6.8 -5.71 c 2 -5.34 -6.91 -13.15 -12.83 -11.23 c -1.35 0.43 -4.02 3.82 -5.94 7.51 c -3.83 7.36 -8.97 12.62 -14.93 15.26 c -8.06 3.56 -9.67 1.85 -6.7 -7.18 c 1.04 -3.17 4.24 -6.85 10.04 -11.55 c 7.91 -6.4 11.35 -8.1 27.94 -13.92 c 12.02 -4.21 18.17 -14.17 11.77 -19.07 c -4.45 -3.4 -8.97 -1.97 -12.16 3.82 c -2.1 3.82 -3.63 5.11 -6.04 5.11 c -1.79 0 -3.24 -0.18 -3.24 -0.38 c 0 -1.39 7.48 -18.25 10.65 -24.02 c 4.21 -7.63 4 -11.94 -0.68 -14.07 c -3.41 -1.54 -9.02 -0.49 -11.86 2.21 c -1.15 1.09 -4.75 9.83 -8.01 19.43 c -6.41 18.9 -9.64 24.15 -18.56 30.21 c -8.4 5.71 -11.32 10.51 -13.59 22.36 c -2.73 14.26 -6.65 20.45 -15.4 24.25 c -7.1 3.09 -20.36 4.68 -27.1 3.25 c -5.1 -1.08 -4.75 -5.91 1.01 -13.64 c 16.28 -21.88 21.8 -29.43 26.58 -36.36 c 4.48 -6.5 7.45 -9.04 17.68 -15.1 c 16.57 -9.82 22.23 -14.59 22.23 -18.77 c 0 -3.76 -5.28 -7.53 -8.9 -6.35 c -1.21 0.38 -4.86 3.38 -8.11 6.64 c -4.25 4.27 -6.94 5.93 -9.57 5.93 c -3.48 0 -3.63 -0.25 -2.94 -5.29 c 0.44 -3.33 2.39 -7.28 5.26 -10.66 c 4.72 -5.55 5.23 -5.85 18.93 -10.94 c 7.25 -2.68 8.18 -3.43 8.18 -6.52 c 0 -1.91 -1.17 -4.39 -2.6 -5.48 c -4.08 -3.13 -9.36 -2.39 -15.88 2.22 c -9.41 6.65 -9.88 6.06 -5.56 -6.96 c 2.66 -7.99 -1.29 -12.9 -9.06 -11.25 c -4.38 0.94 -4.56 1.41 -7.38 17.61 c -5.08 29.26 -16.15 58.24 -27.91 73.02 c -13.1 16.47 -17.5 16.3 -21.17 -0.82 c -3.48 -16.22 3.81 -30.4 22.07 -42.9 c 4.66 -3.2 9.58 -6.91 10.94 -8.25 c 3.54 -3.51 3.13 -8.63 -0.95 -12.09 c -5.18 -4.36 -8.38 -3.79 -11.56 2.09 c -1.49 2.76 -3.46 5.23 -4.35 5.46 c -2.13 0.58 -4.78 -6.06 -4.78 -12 c 0 -5.88 5.86 -11.05 14.7 -12.97 c 3.26 -0.72 7.02 -1.56 8.36 -1.9 c 2.94 -0.72 8.22 -6.13 8.22 -8.43 c 0 -2.45 -5.29 -6.46 -8.53 -6.46 c -1.56 0 -5.32 1.89 -8.35 4.21 c -3.83 2.92 -6.87 4.21 -9.95 4.21 c -7.35 0 -5.49 -3.64 6.93 -13.61 c 12 -9.63 13.4 -12.27 9.16 -17.38 c -2.2 -2.66 -5.5 -3.32 -9.74 -1.95 c -1.22 0.41 -4.52 3.92 -7.32 7.81 c -5.12 7.13 -9.16 9.18 -9.16 4.66 c 0 -1.33 1.39 -6.43 3.09 -11.31 c 2.94 -8.44 2.97 -9.04 0.68 -12 c -1.81 -2.32 -3.61 -3.11 -7.18 -3.11 c -6.6 0 -8.5 2.36 -7.32 9 c 1.28 7.22 -2.09 7.42 -5.52 0.31 c -1.37 -2.81 -3.24 -6.46 -4.18 -8.11 c -2.23 -3.97 -8.26 -4.59 -12.19 -1.27 m -129.73 169.48 c -7.69 2.1 -15.27 6.55 -16.92 9.93 c -1.05 2.14 -1.37 5.93 -0.81 9.88 l 0.9 6.41 l -6.34 2.04 c -5.52 1.79 -6.8 2.92 -10.02 8.88 c -2.05 3.75 -4.71 8.45 -5.92 10.43 c -7.22 11.81 -6.54 17.29 1.96 15.71 c 5.02 -0.94 8.38 -3.81 13.76 -11.81 c 3.71 -5.52 4.07 -5.71 10.41 -5.71 c 6.01 0 7.1 0.48 13.1 5.9 c 7.17 6.47 13.37 8.48 17.79 5.73 c 2.15 -1.32 2.87 -3.98 3.75 -13.56 c 0.77 -8.28 2.43 -15.16 5.45 -22.54 c 4.05 -9.89 4.21 -10.87 2.23 -14.1 c -1.17 -1.91 -4.11 -4.34 -6.53 -5.4 c -5.25 -2.3 -17.5 -3.27 -22.81 -1.82 m 3.33 17.29 c -1.14 1.14 -0.4 3.22 2.82 7.98 c 4.71 6.96 6.84 6.68 6.88 -0.91 c 0.03 -7.28 -5.5 -11.34 -9.7 -7.07 m 255.42 25.03 c -3.36 2.73 -8.49 6.31 -11.42 7.97 c -5.4 3.05 -8.29 8.33 -8.08 14.73 c 0.09 2.39 0.54 1.98 2.22 -2.01 c 2.79 -6.67 7.98 -10.87 18.29 -14.81 c 9.41 -3.58 12.83 -6.25 11.57 -9.02 c -1.44 -3.17 -6.29 -1.97 -12.58 3.14 m -231.48 32.31 c -3.51 2.96 -3.53 3.82 -0.23 7.28 c 4.61 4.8 15.87 2.95 15.87 -2.62 c 0 -3.21 -5.05 -7.07 -9.24 -7.07 c -1.95 0 -4.83 1.08 -6.4 2.4 m 89.23 20.53 c -1.37 0.67 -2.49 2.56 -2.49 4.2 c 0 3.94 5.29 5.61 14.48 4.58 l 7.05 -0.79 l -5.36 -4.64 c -5.42 -4.69 -9.11 -5.59 -13.68 -3.34 m 101.71 2.27 c -4.95 2.55 -7.37 7.63 -5.12 10.74 c 2.4 3.35 10.72 6.3 15.91 5.64 c 8.9 -1.13 12.51 -6.71 8.49 -13.12 c -3.81 -6.03 -11.4 -7.32 -19.28 -3.26 m -47.08 1.09 c -1.12 0.59 1.24 0.79 5.69 0.48 c 10.41 -0.72 11.83 -1.33 3.31 -1.43 c -3.91 -0.04 -7.96 0.38 -9 0.95" stroke-linecap="round"/>
</g>
</svg>